<svg width="185" height="57" viewBox="0 0 185 57" fill="none" xmlns="http://www.w3.org/2000/svg">
<rect x="99" y="7" width="86" height="50" rx="8" fill="#F8C40C"/>
<path d="M13 15.92C15.96 15.92 18.5467 16.5067 20.76 17.68C22.9733 18.8533 24.68 20.5067 25.88 22.64C27.1067 24.7467 27.72 27.1867 27.72 29.96C27.72 32.7067 27.1067 35.1467 25.88 37.28C24.68 39.4133 22.96 41.0667 20.72 42.24C18.5067 43.4133 15.9333 44 13 44H2.48V15.92H13ZM12.56 38.08C15.1467 38.08 17.16 37.3733 18.6 35.96C20.04 34.5467 20.76 32.5467 20.76 29.96C20.76 27.3733 20.04 25.36 18.6 23.92C17.16 22.48 15.1467 21.76 12.56 21.76H9.32V38.08H12.56ZM53.5825 21.68V44H46.7425V40.96C46.0492 41.9467 45.1025 42.7467 43.9025 43.36C42.7292 43.9467 41.4225 44.24 39.9825 44.24C38.2758 44.24 36.7692 43.8667 35.4625 43.12C34.1558 42.3467 33.1425 41.24 32.4225 39.8C31.7025 38.36 31.3425 36.6667 31.3425 34.72V21.68H38.1425V33.8C38.1425 35.2933 38.5292 36.4533 39.3025 37.28C40.0758 38.1067 41.1158 38.52 42.4225 38.52C43.7558 38.52 44.8092 38.1067 45.5825 37.28C46.3558 36.4533 46.7425 35.2933 46.7425 33.8V21.68H53.5825ZM86.9756 21.44C89.749 21.44 91.949 22.28 93.5756 23.96C95.229 25.64 96.0556 27.9733 96.0556 30.96V44H89.2556V31.88C89.2556 30.44 88.869 29.3333 88.0956 28.56C87.349 27.76 86.309 27.36 84.9756 27.36C83.6423 27.36 82.589 27.76 81.8156 28.56C81.069 29.3333 80.6956 30.44 80.6956 31.88V44H73.8956V31.88C73.8956 30.44 73.509 29.3333 72.7356 28.56C71.989 27.76 70.949 27.36 69.6156 27.36C68.2823 27.36 67.229 27.76 66.4556 28.56C65.709 29.3333 65.3356 30.44 65.3356 31.88V44H58.4956V21.68H65.3356V24.48C66.029 23.5467 66.9356 22.8133 68.0556 22.28C69.1756 21.72 70.4423 21.44 71.8556 21.44C73.5356 21.44 75.029 21.8 76.3356 22.52C77.669 23.24 78.709 24.2667 79.4556 25.6C80.229 24.3733 81.2823 23.3733 82.6156 22.6C83.949 21.8267 85.4023 21.44 86.9756 21.44Z" fill="#EEEEEE"/>
<path d="M130.356 32.48C130.356 33.12 130.316 33.7867 130.236 34.48H114.756C114.863 35.8667 115.303 36.9333 116.076 37.68C116.876 38.4 117.849 38.76 118.996 38.76C120.703 38.76 121.889 38.04 122.556 36.6H129.836C129.463 38.0667 128.783 39.3867 127.796 40.56C126.836 41.7333 125.623 42.6533 124.156 43.32C122.689 43.9867 121.049 44.32 119.236 44.32C117.049 44.32 115.103 43.8533 113.396 42.92C111.689 41.9867 110.356 40.6533 109.396 38.92C108.436 37.1867 107.956 35.16 107.956 32.84C107.956 30.52 108.423 28.4933 109.356 26.76C110.316 25.0267 111.649 23.6933 113.356 22.76C115.063 21.8267 117.023 21.36 119.236 21.36C121.396 21.36 123.316 21.8133 124.996 22.72C126.676 23.6267 127.983 24.92 128.916 26.6C129.876 28.28 130.356 30.24 130.356 32.48ZM123.356 30.68C123.356 29.5067 122.956 28.5733 122.156 27.88C121.356 27.1867 120.356 26.84 119.156 26.84C118.009 26.84 117.036 27.1733 116.236 27.84C115.463 28.5067 114.983 29.4533 114.796 30.68H123.356ZM140.804 24.84C141.444 23.8 142.364 22.96 143.564 22.32C144.764 21.68 146.138 21.36 147.684 21.36C149.524 21.36 151.191 21.8267 152.684 22.76C154.178 23.6933 155.351 25.0267 156.204 26.76C157.084 28.4933 157.524 30.5067 157.524 32.8C157.524 35.0933 157.084 37.12 156.204 38.88C155.351 40.6133 154.178 41.96 152.684 42.92C151.191 43.8533 149.524 44.32 147.684 44.32C146.111 44.32 144.738 44.0133 143.564 43.4C142.391 42.76 141.471 41.92 140.804 40.88V44H133.964V14.4H140.804V24.84ZM150.564 32.8C150.564 31.0933 150.084 29.76 149.124 28.8C148.191 27.8133 147.031 27.32 145.644 27.32C144.284 27.32 143.124 27.8133 142.164 28.8C141.231 29.7867 140.764 31.1333 140.764 32.84C140.764 34.5467 141.231 35.8933 142.164 36.88C143.124 37.8667 144.284 38.36 145.644 38.36C147.004 38.36 148.164 37.8667 149.124 36.88C150.084 35.8667 150.564 34.5067 150.564 32.8ZM164.553 19.36C163.353 19.36 162.366 19.0133 161.593 18.32C160.846 17.6 160.473 16.72 160.473 15.68C160.473 14.6133 160.846 13.7333 161.593 13.04C162.366 12.32 163.353 11.96 164.553 11.96C165.726 11.96 166.686 12.32 167.433 13.04C168.206 13.7333 168.593 14.6133 168.593 15.68C168.593 16.72 168.206 17.6 167.433 18.32C166.686 19.0133 165.726 19.36 164.553 19.36ZM167.953 21.68V44H161.113V21.68H167.953Z" fill="black"/>
</svg>
